<svg version="1.1" xmlns="http://www.w3.org/2000/svg" style="display: block;" viewBox="0 0 3200 3200" width="5692" height="3200" preserveAspectRatio="none">
<path transform="translate(0,0)" fill="rgb(255,255,255)" d="M 278.259 1586.25 C 310.96 1589.91 329.726 1613.19 340.754 1642.39 C 361.334 1696.89 358.575 1757.25 335.394 1810.51 C 341.632 1823.23 347.675 1837.06 353.604 1850 L 325.635 1850 L 318.436 1835.69 C 313.963 1840.21 310.148 1843.09 305.147 1847.05 C 288.898 1856.97 266.298 1858.81 250.981 1846.21 C 190.727 1796.66 190.542 1675.14 232.391 1614.22 C 244.02 1597.29 258.556 1589.24 278.259 1586.25 z M 300.921 1800.94 C 295.926 1790.57 290.935 1779.91 285.782 1769.64 L 268.068 1732.82 L 299.755 1732.82 C 305.481 1745.27 312.301 1761.32 318.505 1773.22 C 321.9 1760.93 324.332 1750.85 325.664 1738.15 C 329.355 1702.97 322.931 1631.04 273.845 1633.09 C 202.829 1656.01 224.638 1846.97 300.921 1800.94 z"/>
<path transform="translate(0,0)" fill="rgb(255,255,255)" d="M 830.151 1591.76 L 853.928 1591.74 C 877.035 1645.09 901.887 1706.1 926.616 1758.06 L 926.621 1591.74 L 954.822 1591.74 L 954.822 1850 L 931.817 1850 C 907.1 1794.77 882.977 1737.85 858.804 1682.28 L 858.801 1850 L 830.151 1850 L 830.151 1591.76 z"/>
<path transform="translate(0,0)" fill="rgb(255,255,255)" d="M 2139.23 1591.75 L 2162.71 1591.74 L 2208.43 1696.65 C 2216.71 1715.72 2226.56 1740.06 2235.81 1758.2 L 2235.81 1591.74 L 2264.09 1591.74 L 2264.09 1850 L 2240.66 1850 C 2217.93 1794.92 2191.43 1736.54 2167.56 1681.63 C 2166.14 1735.72 2167.41 1795.46 2167.41 1850 L 2139.23 1850 L 2139.23 1591.75 z"/>
<path transform="translate(0,0)" fill="rgb(255,255,255)" d="M 1307.17 1591.74 L 1344.53 1591.74 C 1348.2 1616.41 1357.34 1652.71 1362.87 1678.27 L 1399.82 1850 L 1370.21 1850 C 1367.19 1834.43 1363.25 1810.27 1358.5 1795.82 C 1353.58 1792.84 1351.32 1793.95 1344.53 1793.8 L 1293.12 1793.8 C 1289.2 1812.56 1285.16 1831.29 1281 1850 L 1251.84 1850 C 1268.32 1765.24 1289.33 1676.74 1307.17 1591.74 z M 1302.06 1749.58 L 1327.34 1749.58 L 1349.36 1749.58 C 1342.24 1719.2 1333.82 1668.82 1325.55 1641.65 C 1317.5 1676.28 1310.88 1716.18 1302.06 1749.58 z"/>
<path transform="translate(0,0)" fill="rgb(255,255,255)" d="M 2797.75 1591.74 L 2835.04 1591.74 C 2850.71 1675.11 2872.98 1766.06 2890.57 1850 L 2861.39 1850 C 2856.48 1832.83 2855.08 1813.81 2849.29 1795.69 C 2845.58 1792.94 2840.16 1793.79 2835.16 1793.8 L 2783.72 1793.8 C 2779.99 1812.56 2776.12 1831.3 2772.11 1850 L 2742.44 1850 C 2744.9 1839.35 2747.33 1828.32 2749.47 1817.58 C 2764.48 1742.37 2783.67 1667.05 2797.75 1591.74 z M 2792.95 1749.58 L 2817.97 1749.58 L 2840.21 1749.58 C 2832.04 1715.38 2825.36 1674.23 2816.31 1641.66 C 2808.69 1675.41 2801.46 1717.34 2792.95 1749.58 z"/>
<path transform="translate(0,0)" fill="rgb(255,255,255)" d="M 1926.56 1591.74 L 2033.55 1591.74 L 2033.55 1637.54 L 1954.63 1637.54 L 1954.63 1696.72 L 2023.13 1696.72 L 2023.13 1740.71 L 1954.63 1740.71 L 1954.63 1780.47 L 1954.63 1804.42 L 2033.04 1804.42 L 2033.04 1850 L 1926.56 1850 L 1926.56 1591.74 z"/>
<path transform="translate(0,0)" fill="rgb(255,255,255)" d="M 1496.91 1591.74 L 1603.51 1591.74 L 1603.51 1637.54 L 1524.86 1637.54 L 1524.86 1696.72 L 1593.03 1696.72 L 1593.03 1740.71 L 1524.86 1740.71 L 1524.86 1780.47 L 1524.86 1804.42 L 1603.42 1804.42 L 1603.42 1850 L 1496.91 1850 L 1496.91 1591.74 z"/>
<path transform="translate(0,0)" fill="rgb(255,255,255)" d="M 1756.4 1586.27 C 1796.02 1591.11 1809.49 1618.33 1819.49 1652.96 L 1793.22 1666.4 C 1781.33 1635.04 1747.94 1609.71 1732.5 1656.41 C 1723.9 1682.43 1795.97 1702.58 1809.58 1726.49 C 1822 1748.32 1825.35 1766.49 1821.14 1792.94 C 1814.61 1833.57 1793.28 1860.06 1750.13 1853.55 C 1719.09 1840.94 1703.42 1808.03 1697.83 1776.77 L 1724.31 1762.28 C 1730.28 1783.97 1740.84 1808.87 1767.18 1810.29 C 1787.45 1812.75 1797.12 1786.23 1792.82 1769.89 C 1783.28 1737.97 1733.15 1734.89 1716.52 1706.85 C 1692.97 1667.13 1702.64 1594.59 1756.4 1586.27 z"/>
<path transform="translate(0,0)" fill="rgb(255,255,255)" d="M 2442.84 1586.3 C 2489.29 1591.8 2505.94 1629.33 2513.87 1670.53 L 2486.5 1682.34 C 2469.56 1621 2421.7 1615.74 2402.45 1678.03 C 2392.38 1710.58 2395.15 1754.25 2411.39 1784.31 C 2419.17 1798.72 2428.25 1804.48 2443.68 1808.47 C 2466.9 1802.96 2472.21 1795.21 2482.16 1774.57 L 2486.68 1759.9 C 2496.57 1764.2 2504.48 1767.69 2513.95 1772.8 C 2485.16 1899.84 2385.45 1869.06 2370.85 1759.2 C 2363.3 1702.39 2370.29 1596.59 2442.84 1586.3 z"/>
<path transform="translate(0,0)" fill="rgb(255,255,255)" d="M 457.697 1591.74 L 486.248 1591.74 L 486.107 1696.35 C 486.048 1722.07 481.975 1780.72 501.757 1799.86 C 526.758 1824.06 549.123 1796.5 552.554 1768.67 C 555.475 1744.97 554.792 1723.71 554.766 1699.55 L 554.649 1591.74 L 582.985 1591.74 L 582.985 1638.28 C 583.124 1691.44 592.298 1797.76 558.007 1837.58 C 549.057 1847.97 536.973 1854.19 523.212 1854.79 C 509.273 1855.4 496.769 1852.09 486.716 1842.16 C 473.871 1829.48 466.466 1810.68 462.605 1793.32 C 455.67 1762.13 457.574 1729.4 457.596 1697.67 L 457.697 1591.74 z"/>
<path transform="translate(0,0)" fill="rgb(255,255,255)" d="M 2935.99 1345.39 C 3005.27 1337.82 3021.13 1499.67 2951.3 1532.18 C 2880.8 1540.15 2866.77 1374.12 2935.99 1345.39 z"/>
<path transform="translate(0,0)" fill="rgb(255,255,255)" d="M 1054.69 1591.74 L 1180.22 1591.74 L 1180.22 1637.54 L 1131.54 1637.54 L 1131.54 1800.78 L 1131.54 1850 L 1103.25 1850 L 1103.25 1637.54 L 1054.69 1637.54 L 1054.69 1591.74 z"/>
<path transform="translate(0,0)" fill="rgb(255,255,255)" d="M 691.985 1591.74 L 720.419 1591.74 L 720.419 1850 L 691.985 1850 L 691.985 1591.74 z"/>
<path transform="translate(0,0)" fill="rgb(255,255,255)" d="M 2616.87 1591.74 L 2645.3 1591.74 L 2645.3 1850 L 2616.87 1850 L 2616.87 1591.74 z"/>
</svg>